<?xml version="1.0" standalone="no"?>
<!DOCTYPE svg PUBLIC "-//W3C//DTD SVG 20010904//EN"
 "http://www.w3.org/TR/2001/REC-SVG-20010904/DTD/svg10.dtd">
<svg version="1.0" xmlns="http://www.w3.org/2000/svg"
 width="64.000000pt" height="64.000000pt" viewBox="0 0 64.000000 64.000000"
 preserveAspectRatio="xMidYMid meet" >

<g transform="translate(0.000000,64.000000) scale(0.100000,-0.100000)"
fill="#fff" stroke="none">
<path fill="#000" d="M140 608 c-25 -13 -55 -38 -67 -57 -22 -32 -23 -43 -23 -224 l0 -190
35 -33 c19 -18 35 -40 35 -48 0 -16 29 -36 53 -36 8 0 31 11 51 25 52 35 140
35 192 0 20 -14 43 -25 51 -25 24 0 53 20 53 36 0 8 16 30 35 48 l35 33 0 190
c0 181 -1 192 -23 224 -12 19 -42 44 -67 57 -39 20 -59 22 -180 22 -121 0
-141 -2 -180 -22z m74 -98 c44 -16 74 -108 45 -137 -7 -7 -9 -19 -6 -27 9 -23
125 -23 134 0 3 8 1 20 -6 27 -29 29 1 121 46 138 34 13 57 4 88 -32 21 -26
25 -40 25 -98 0 -63 -2 -69 -30 -89 l-29 -22 -16 29 c-8 16 -19 32 -25 36 -14
9 -110 -43 -110 -60 0 -9 16 -47 35 -85 l35 -70 -130 0 c-117 0 -132 2 -150
20 -26 26 -28 66 -2 54 9 -4 33 -8 52 -8 29 -1 36 3 38 21 3 17 -10 33 -52 65
l-56 43 0 69 c0 64 2 70 34 102 37 37 42 39 80 24z m151 -155 c0 -11 -59 -19
-82 -11 -8 3 -11 11 -8 16 8 14 90 9 90 -5z m75 -36 c0 -5 -13 -15 -30 -20
-34 -13 -34 -10 -19 -43 11 -24 13 -25 43 -9 l31 16 -18 -21 c-26 -28 -18 -56
17 -62 l29 -5 -37 -17 c-20 -10 -41 -18 -46 -18 -8 0 -70 122 -70 136 0 3 90
52 98 54 1 0 2 -5 2 -11z m0 -54 c-14 -8 -29 -14 -35 -14 -5 0 1 6 15 14 14 8
30 14 35 14 6 0 -1 -6 -15 -14z m100 -85 c0 -36 -35 -60 -87 -60 l-48 0 53 25
c29 13 55 31 58 40 9 22 24 19 24 -5z m-342 -125 c-15 -8 -34 -12 -42 -9 -30
12 -16 24 27 24 l42 -1 -27 -14z m302 6 c0 -17 -32 -21 -58 -6 l-27 14 43 1
c23 0 42 -4 42 -9z"/>
<path d="M155 448 c-10 -36 -11 -68 -1 -68 6 0 21 -3 34 -6 20 -6 22 -3 22 27
0 23 -3 30 -9 20 -11 -17 -23 1 -15 23 4 11 1 16 -10 16 -9 0 -18 -6 -21 -12z"/>
<path d="M442 448 c-7 -7 -12 -27 -12 -46 0 -31 2 -34 23 -28 12 3 27 6 34 6
6 0 9 9 6 20 -3 11 -9 17 -14 14 -5 -3 -9 4 -9 16 0 13 4 19 12 14 7 -4 8 -3
4 4 -9 15 -29 15 -44 0z"/>
</g>
</svg>
